<svg xmlns="http://www.w3.org/2000/svg" xml:space="preserve" id="prefix__Layer_1" x="0" y="0" viewBox="0 0 223 79">  <style>.prefix__st5{fill:#fff}.prefix__st20{fill:#3cb54a}</style>  <path d="m63.2 41.5-19.4.1-9.7 18 9.8 17.9 19.4-.1 9.7-18z" class="prefix__st20"></path>  <path d="M52.7 49.3c-4.8 1-5.8 3.9-5.8 3.9s.9-8.8 14.7-6.2c-2.2 5-7 7.9-10.9 7.2-.5 4.2-2.8 14.6 5.9 21.7H46.4c-.9-5-3.2-22.3 6.3-26.6" class="prefix__st5"></path>  <path d="m63.1 1.5 9.8 17.9-9.7 18-19.4.1L34 19.6l9.7-18zM30.6 21.7H11.2l-9.7 18 9.8 17.9h19.4l9.7-18z" class="prefix__st20"></path>  <path d="m23.2 50.8-5.7.1v-9H9.1L9 35.8h8.4v-8.9l5.7-.1.1 9h8.4v6.1h-8.4zm65.7-1.5h-6.7V6.9h6.7v18.2h7.6V6.9h6.8v42.4h-6.8V31.1h-7.6zm25.9-24.5h9.1v6.1h-9.1v12.4h11.5v6.1h-18.2V6.9h18.2V13h-11.5zm29.5 24.5c-.4-1.1-.6-1.8-.6-5.2v-6.7c0-3.9-1.3-5.4-4.4-5.4H137v17.2h-6.7V6.9h10c6.9 0 9.9 3.2 9.9 9.7V20q0 6.5-4.4 8.6c3.3 1.4 4.4 4.6 4.4 9v6.5q-.1 3 .7 5.1zM137 13v13h2.6c2.5 0 4-1.1 4-4.5v-4.2q.1-4.4-3.4-4.4zm37.6 3.6v1.5q.1 6.5-4.3 8.5 5.2 2.2 5 9.1v3.4q0 9.9-10.1 10h-10.5V6.9h10c6.9 0 9.9 3.2 9.9 9.7M161.4 13v11.2h2.6c2.5 0 4-1.1 4-4.5v-2.4q.1-4.4-3.4-4.4zm0 17.2v13h3.8c2.2 0 3.4-1 3.4-4.2v-3.7c0-3.9-1.3-5.1-4.3-5.1zm39.4 19.1h-6.7l-1.1-7.7h-8.2l-1.1 7.7h-6.1l6.8-42.4h9.7zm-15.2-13.5h6.4l-3.2-21.4zm18.3-28.9h6.7v36.3h11v6.1H204zM87.6 62.1l-1 9.4h-3.8l-2-17.6h2.7L85 67.8l1.3-13.9H89l1.4 14 1.4-14h2.4l-2 17.6h-3.7zm10.7-.8h3.8v2.5h-3.8V69h4.8v2.5h-7.5V53.9h7.5v2.5h-4.8zm6.5-7.4h2.8V69h4.5v2.5h-7.3zm8.5 0h2.8V69h4.5v2.5h-7.3zm11 4.8v12.7h-2.5V53.9h3.5l2.8 10.5V53.9h2.5v17.6h-2.8zm11 2.6h3.8v2.5h-3.8V69h4.8v2.5h-7.5V53.9h7.5v2.5h-4.8zm10.2-7.6q4 .1 4.1 4.4v.6H147V58q0-1.8-1.4-1.7-1.4 0-1.4 1.7c0 3.6 5.4 4.3 5.4 9.3q0 4.3-4.1 4.4-4-.1-4.1-4.4v-1.1h2.6v1.3q.1 1.8 1.4 1.7c1.3-.1 1.4-.5 1.4-1.7 0-3.6-5.4-4.3-5.4-9.3q.1-4.4 4.1-4.5m9.4 0q4 .1 4.1 4.4v.6h-2.6V58q0-1.8-1.4-1.7-1.4 0-1.4 1.7c0 3.6 5.4 4.3 5.4 9.3q0 4.3-4.1 4.4-4-.1-4.1-4.4v-1.1h2.6v1.3q.1 1.8 1.4 1.7 1.4 0 1.4-1.7c0-3.6-5.4-4.3-5.4-9.3q0-4.4 4.1-4.5m17.6 11.2v2.3q0 4.3-4.1 4.4-4-.1-4.1-4.4v-9.1q0-4.3 4.1-4.4 4 .1 4.1 4.4v1.7h-2.6v-1.9q-.1-1.8-1.4-1.7-1.4 0-1.4 1.7v9.5q.1 1.8 1.4 1.7 1.4 0 1.4-1.7v-2.5zm4.4-3.6h3.8v2.5h-3.8V69h4.8v2.5h-7.5V53.9h7.5v2.5h-4.8zm9-2.6v12.7h-2.5V53.9h3.5l2.8 10.5V53.9h2.5v17.6h-2.8zm7.4-4.8h8.5v2.5H199v15.1h-2.8V56.4h-2.9zm12.5 7.4h3.8v2.5h-3.8V69h4.8v2.5h-7.5V53.9h7.5v2.5h-4.8zm12.3 10.2c-.2-.5-.3-.7-.3-2.2v-2.8q0-2.3-1.8-2.2h-1v7.2h-2.8V53.9h4.2q4.2 0 4.1 4v1.4q0 2.7-1.8 3.6 2 1 1.8 3.7v2.7q0 1.3.3 2.1h-2.7zm-3-15.1v5.4h1.1q1.6.1 1.7-1.9v-1.7q0-1.9-1.4-1.8z" class="prefix__st5"></path></svg>